# Blender v2.77 (sub 0) OBJ File: ''
# www.blender.org
v 1.450000 0.000000 0.440000
v 1.550000 0.000000 0.440000
v 1.450000 0.000000 -0.440000
v 1.550000 0.000000 -0.440000
v 1.450000 0.900000 0.440000
v 1.550000 1.000000 0.399095
v 1.450000 0.900000 -0.440000
v 1.550000 1.000000 -0.440000
v -1.550000 0.900000 -0.440000
v -1.550000 0.900000 0.399095
v -1.450000 1.000000 0.399095
v -1.450000 1.000000 -0.440000
v -1.447161 0.900000 -0.440000
v -1.447161 0.900000 0.440000
v -1.550000 0.000000 -0.440000
v -1.550000 0.000000 0.440000
v -1.447161 0.000000 0.440000
v -1.447161 0.000000 -0.440000
vt 0.7472 0.0654
vt 1.0000 0.0332
vt 1.0000 0.0654
vt 0.2411 0.0000
vt 0.0000 0.9674
vt 0.0000 0.0000
vt 0.7472 0.0000
vt 0.6334 0.0323
vt 0.6208 0.0000
vt 0.6208 1.0000
vt 0.5071 0.9677
vt 0.6208 0.9677
vt 0.8736 0.0977
vt 0.7472 0.0669
vt 0.8736 0.0654
vt 0.9874 0.0977
vt 0.8736 0.0654
vt 0.9874 0.0654
vt 0.2411 0.9997
vt 0.0000 0.9997
vt 0.4939 0.0000
vt 0.2411 0.9346
vt 0.2411 0.0000
vt 0.6334 0.9668
vt 0.6208 0.9677
vt 0.4939 0.0323
vt 0.5065 0.0000
vt 0.5071 0.0332
vt 0.7472 0.1284
vt 0.8609 0.0977
vt 0.8609 0.1299
vt 0.7472 0.0332
vt 1.0000 0.0000
vt 1.0000 0.0332
vt 0.8609 0.0977
vt 0.9747 0.1299
vt 0.8609 0.1299
vt 0.7472 1.0000
vt 0.6334 1.0000
vt 0.6208 0.0000
vt 0.6208 0.0332
vt 0.7472 0.0332
vt 0.2411 0.9674
vt 0.7472 0.0323
vt 0.4939 1.0000
vt 0.7472 0.0977
vt 0.8736 0.0977
vt 0.4939 0.9346
vt 0.7472 0.0977
vt 0.7472 0.0000
vt 0.9747 0.0977
vt 0.7472 0.9668
vn 0.0000 -1.0000 0.0000
vn 0.0000 1.0000 0.0000
vn 0.0000 0.0000 -1.0000
vn 0.0000 0.0000 1.0000
vn 1.0000 0.0000 0.0000
vn -1.0000 0.0000 0.0000
vn -0.7071 0.7071 0.0000
vn -0.3467 0.3467 0.8716
vn 0.3452 0.0384 0.9377
vn 0.0000 0.3786 0.9256
vn -0.3693 0.0422 0.9284
s off
f 3/1/1 2/2/1 1/3/1
f 8/4/2 11/5/2 6/6/2
f 4/7/3 7/8/3 8/9/3
f 2/10/4 5/11/4 1/12/4
f 4/13/5 6/14/5 2/15/5
f 1/16/6 7/17/6 3/18/6
f 11/5/7 9/19/7 10/20/7
f 5/21/1 13/22/1 7/23/1
f 7/8/3 13/24/3 12/25/3
f 11/26/8 10/27/8 14/28/8
f 10/29/6 15/30/6 16/31/6
f 17/32/1 15/33/1 18/34/1
f 14/35/5 18/36/5 13/37/5
f 13/24/3 15/38/3 9/39/3
f 14/28/4 16/40/4 17/41/4
f 3/1/1 4/42/1 2/2/1
f 8/4/2 12/43/2 11/5/2
f 4/7/3 3/44/3 7/8/3
f 2/10/9 6/45/9 5/11/9
f 4/13/5 8/46/5 6/14/5
f 1/16/6 5/47/6 7/17/6
f 11/5/7 12/43/7 9/19/7
f 5/21/1 14/48/1 13/22/1
f 12/25/3 8/9/3 7/8/3
f 13/24/3 9/39/3 12/25/3
f 14/28/10 5/11/10 11/26/10
f 6/45/10 11/26/10 5/11/10
f 10/29/6 9/49/6 15/30/6
f 17/32/1 16/50/1 15/33/1
f 14/35/5 17/51/5 18/36/5
f 13/24/3 18/52/3 15/38/3
f 14/28/11 10/27/11 16/40/11
